<?xml version="1.0" standalone="no"?>
<!DOCTYPE svg PUBLIC "-//W3C//DTD SVG 20010904//EN"
 "http://www.w3.org/TR/2001/REC-SVG-20010904/DTD/svg10.dtd">
<svg version="1.0" xmlns="http://www.w3.org/2000/svg"
 width="180.000000pt" height="180.000000pt" viewBox="0 0 180.000000 180.000000"
 preserveAspectRatio="xMidYMid meet">
<metadata>
Created by potrace 1.14, written by Peter Selinger 2001-2017
</metadata>
<g transform="translate(0.000000,180.000000) scale(0.100000,-0.100000)"
fill="#000000" stroke="none">
<path d="M10 1344 c0 -2 28 -19 63 -40 34 -21 63 -38 64 -39 5 -3 13 -108 18
-215 2 -58 7 -141 10 -185 3 -44 7 -121 10 -172 l4 -92 -52 -45 -52 -46 155 0
154 0 -48 49 -48 49 7 113 c4 63 7 121 7 130 0 13 19 15 146 13 81 -1 157 -3
168 -3 17 -1 21 -6 18 -27 -1 -14 -4 -82 -6 -150 l-3 -125 -77 -51 c-43 -28
-78 -52 -78 -53 0 -2 99 -2 219 -1 208 1 219 2 204 18 -9 10 -21 18 -27 18 -6
0 -27 14 -46 29 -27 23 -35 37 -36 68 -1 21 -5 124 -9 228 -3 105 -8 230 -10
280 -3 100 -8 92 92 168 23 18 43 36 43 40 0 5 -4 6 -8 3 -4 -3 -57 -7 -117
-11 -161 -9 -238 -15 -242 -19 -2 -2 11 -11 29 -20 28 -14 55 -29 78 -44 4 -3
3 -85 -3 -227 l-2 -40 -60 2 c-33 1 -106 2 -163 3 l-104 2 7 131 c6 125 10
175 13 188 1 3 24 16 52 30 27 13 50 27 50 32 0 4 -24 7 -52 8 -29 0 -124 1
-210 3 -87 1 -158 1 -158 0z"/>
<path d="M910 1331 c120 -78 115 -73 116 -121 2 -63 14 -286 19 -340 11 -134
15 -280 8 -280 -4 -1 -28 -19 -53 -40 l-45 -40 155 0 154 0 -48 49 -47 48 6
124 c3 68 8 126 10 130 3 3 60 5 127 3 68 -1 142 -3 164 -3 39 -1 41 -3 38
-28 -1 -16 -4 -81 -5 -147 -2 -75 -7 -123 -14 -130 -7 -7 -42 -31 -79 -55 -36
-24 -66 -45 -66 -46 0 -3 429 1 439 4 2 1 -25 20 -60 44 l-64 42 -2 60 c-1 33
-4 148 -8 255 -4 107 -8 224 -9 260 l-2 66 70 58 70 58 -125 -6 c-140 -8 -232
-16 -237 -20 -1 -2 19 -16 45 -31 26 -16 51 -32 54 -37 5 -7 3 -84 -4 -223
l-2 -40 -65 1 c-36 1 -109 3 -163 4 l-98 2 6 132 c7 143 10 185 16 190 2 2 28
16 57 31 28 16 51 30 49 32 -2 1 -100 4 -217 6 -197 3 -212 2 -190 -12z"/>
</g>
</svg>
